<?xml version="1.0" encoding="utf-8"?>
<!-- Generator: Adobe Illustrator 22.0.1, SVG Export Plug-In . SVG Version: 6.00 Build 0)  -->
<svg version="1.1" id="Layer_1" xmlns="http://www.w3.org/2000/svg" xmlns:xlink="http://www.w3.org/1999/xlink" x="0px" y="0px"
	 viewBox="0 0 1280 800" style="enable-background:new 0 0 1280 800;" xml:space="preserve">
<style type="text/css">
	.st0{fill:url(#SVGID_1_);}
	.st1{fill:url(#SVGID_2_);}
	.st2{fill:url(#SVGID_3_);}
	.st3{fill:url(#SVGID_4_);}
	.st4{fill:url(#SVGID_5_);}
</style>
<linearGradient id="SVGID_1_" gradientUnits="userSpaceOnUse" x1="-209.304" y1="575.0991" x2="1131.1141" y2="295.6192">
	<stop  offset="0" style="stop-color:#2AB4B9"/>
	<stop  offset="1" style="stop-color:#00E6B6"/>
</linearGradient>
<path class="st0" d="M1280.4,397.9c0-8.2,0-16.4,0-24.6v0c-9-4.8-17.2-11.1-24.1-18.5c-5.1-5.4-11.6-9.2-18.8-10.9
	c-41.3-9.3-72.2-46.3-72.2-90.5c0-31.4,15.6-59.2,39.5-76v0c-1-5.4-1.5-11.1-1.5-16.8c0-45.9,33.3-84,77.1-91.4c0,0,0,0,0,0
	c0-23.8,0-47,0-69.3l0,0C948.6,0,331.8,0,0,0l0,0l0,299.6c0,0.1,0,0.2,0,0.3c3.6,44.2,3.2,79.9,21.6,106.5
	c14,20.4,40.6,39.4,67.4,43.6c15.6,2.4,31.9-0.1,46.4,11.5c4,3.2,12.2,4.4,19.9,10.9c5.2,4.4,13,4,17.8-0.9
	c9.6-9.8,24-14.8,39.4-11.5c16,3.5,28.5,16.3,31.6,32.3c1.3,6.5,1.1,12.8-0.4,18.7c-2.8,11.4,1,23.4,10.1,30.9h0
	c0.1,0,0.1,0.1,0.2,0.1c5.9,5.9,12.8,10.9,19.8,15.8c0.1,0.1,0.2,0.1,0.4,0.2c0.7,0.4,1.4,0.7,2.1,1.1c0.6,0.3,1.3,0.6,1.9,0.9
	c20,8.9,49-1.3,49-1.3c49.7-17.5,120-69.4,197.1-77.2c42.2-4.3,71.5,6.2,81.2,10c23.2,9.2,38.2,21.7,45.4,27.7
	c79.1,65.3,118.5,98.3,154.5,108.8c57.9,16.8,105.7-8.4,183.5,1c9.2,1.1,26.7,3.7,47.1,12.5c22.3,9.7,37,22.2,44.9,29.2
	c64.2,56.6,75.9,101.3,122,120.8c15.4,6.5,39.8,12.5,74.9,4.9c0.9-1.2,1.6-1.9,2.5-3.1C1280.4,661.6,1280.4,529.8,1280.4,397.9z"/>
<linearGradient id="SVGID_2_" gradientUnits="userSpaceOnUse" x1="1208.8505" y1="173.2653" x2="1252.2008" y2="164.2267">
	<stop  offset="0" style="stop-color:#2AB4B9"/>
	<stop  offset="1" style="stop-color:#00E6B6"/>
</linearGradient>
<circle class="st1" cx="1237.8" cy="167.2" r="21.4"/>
<linearGradient id="SVGID_3_" gradientUnits="userSpaceOnUse" x1="1271.5482" y1="156.8585" x2="1174.0531" y2="299.3514">
	<stop  offset="0.4445" style="stop-color:#2AB4B9"/>
	<stop  offset="1" style="stop-color:#00E6B6"/>
</linearGradient>
<circle class="st2" cx="1256.4" cy="179" r="10.7"/>
<linearGradient id="SVGID_4_" gradientUnits="userSpaceOnUse" x1="1269.9908" y1="262.8677" x2="1137.9974" y2="373.8622">
	<stop  offset="0" style="stop-color:#2AB4B9"/>
	<stop  offset="1" style="stop-color:#00E6B6"/>
</linearGradient>
<path class="st3" d="M1280.5,224.5c-4.5-0.9-9.1-1.4-14-1.4c-31.5,0-57,21.1-57,47.2s25.5,47.2,57,47.2c5.2,0,10.2-0.6,15-1.7
	C1282.4,285.4,1280.7,255,1280.5,224.5z"/>
<linearGradient id="SVGID_5_" gradientUnits="userSpaceOnUse" x1="1151.5874" y1="322.8251" x2="1238.583" y2="307.8258">
	<stop  offset="0" style="stop-color:#2AB4B9"/>
	<stop  offset="1" style="stop-color:#00E6B6"/>
</linearGradient>
<circle class="st4" cx="1212.9" cy="312.2" r="57"/>
</svg>
